<svg id="app-store_1_" data-name="app-store (1)" xmlns="http://www.w3.org/2000/svg" width="26.13" height="26.13" viewBox="0 0 26.13 26.13">
  <g id="Grupo_13801" data-name="Grupo 13801">
    <path id="Trazado_64696" data-name="Trazado 64696" d="M20.771,0H5.359A5.365,5.365,0,0,0,0,5.359V20.771A5.365,5.365,0,0,0,5.359,26.13H20.771a5.365,5.365,0,0,0,5.359-5.359V5.359A5.365,5.365,0,0,0,20.771,0ZM8.046,20.134a1.276,1.276,0,0,1-2.21-1.276l.251-.435H9.033ZM5.639,17.4a1.276,1.276,0,1,1,0-2.552h2.51l3.443-5.963-.933-1.616a1.277,1.277,0,0,1,.467-1.743h0A1.277,1.277,0,0,1,12.869,6l.2.34.2-.34a1.276,1.276,0,1,1,2.21,1.276L11.1,14.851h2.76L15.329,17.4Zm14.851,0H19.454l.84,1.455a1.276,1.276,0,1,1-2.21,1.276l-4.43-7.673,1.473-2.552,2.853,4.942h2.51a1.276,1.276,0,1,1,0,2.552Z" fill="#fff"/>
  </g>
</svg>
