<svg id="google-play" xmlns="http://www.w3.org/2000/svg" width="24.496" height="26.13" viewBox="0 0 24.496 26.13">
  <g id="Grupo_14668" data-name="Grupo 14668">
    <g id="Grupo_806" data-name="Grupo 806" transform="translate(1.648)">
      <g id="Grupo_805" data-name="Grupo 805">
        <path id="Trazado_580" data-name="Trazado 580" d="M51.54.418A3.318,3.318,0,0,0,48.3.426L60.207,11.409l4-4Z" transform="translate(-48.302 0)" fill="#fff"/>
      </g>
    </g>
    <g id="Grupo_808" data-name="Grupo 808" transform="translate(0 1.549)">
      <g id="Grupo_807" data-name="Grupo 807">
        <path id="Trazado_581" data-name="Trazado 581" d="M16.471,30.365a3.045,3.045,0,0,0-.457,1.6V51.8a3.055,3.055,0,0,0,.426,1.556L28.412,41.38Z" transform="translate(-16.014 -30.365)" fill="#fff"/>
      </g>
    </g>
    <g id="Grupo_810" data-name="Grupo 810" transform="translate(14.753 8.23)">
      <g id="Grupo_809" data-name="Grupo 809">
        <path id="Trazado_582" data-name="Trazado 582" d="M313.2,163.382l-3.815-2.1-4.287,4.285,5.254,4.845,2.85-1.573a3.086,3.086,0,0,0,0-5.453Z" transform="translate(-305.102 -161.277)" fill="#fff"/>
      </g>
    </g>
    <g id="Grupo_812" data-name="Grupo 812" transform="translate(1.594 13.671)">
      <g id="Grupo_811" data-name="Grupo 811">
        <path id="Trazado_583" data-name="Trazado 583" d="M59.251,267.9l-12,12a3.31,3.31,0,0,0,3.292.031l13.615-7.514Z" transform="translate(-47.246 -267.901)" fill="#fff"/>
      </g>
    </g>
  </g>
</svg>
