<svg xmlns="http://www.w3.org/2000/svg" width="26.419" height="26.42" viewBox="0 0 26.419 26.42">
  <g id="Huawei_AppGallery" transform="translate(-0.491 -2.139)">
    <path id="Sustracción_5" data-name="Sustracción 5" d="M18.373,28.147H7.953a8.009,8.009,0,0,1-8-8V9.726A8.012,8.012,0,0,1,5.859,2a.748.748,0,0,0,.558,1.221,7.479,7.479,0,0,0,6.716,3.618,7.522,7.522,0,0,0,6.726-3.618h.025A.748.748,0,0,0,20.47,2a8.013,8.013,0,0,1,5.9,7.723v10.42A8.009,8.009,0,0,1,18.373,28.147ZM6.726,13v1.977a1.384,1.384,0,0,0,1.509,1.531,1.4,1.4,0,0,0,1.522-1.56V13H9.043v1.98c0,.556-.284.862-.8.862s-.8-.315-.8-.886V13ZM3.415,15.055H5.026v1.4H5.74V13H5.026v1.4H3.415V13H2.7v3.459h.714v-1.4Zm12.779-.869v0l.8,2.269h.6L18.811,13h-.74l-.778,2.377L16.494,13h-.582l-.8,2.379L14.336,13h-.76L14.8,16.458h.59l.8-2.269ZM19.387,13v3.453h2.656v-.629H20.091v-.857h1.3v-.63h-1.3v-.707h1.885V13Zm-8.218,2.733h1.61l.315.72h.749L12.307,13.02,12.294,13h-.625L10.12,16.457h.728l.3-.67.021-.05ZM22.892,13v3.453h.7V13ZM12.515,15.113H11.436l.034-.079.5-1.158.509,1.158.034.078Zm.619-8.9h0A7.487,7.487,0,0,1,7,2.978a.746.746,0,0,0-.212-1.168,8.092,8.092,0,0,1,1.166-.085h10.42a8.132,8.132,0,0,1,1.167.085.746.746,0,0,0-.249,1.123A7.512,7.512,0,0,1,13.135,6.213Z" transform="translate(0.537 0.413)" fill="#fff"/>
  </g>
</svg>
