<?xml version="1.0" encoding="UTF-8"?>
<svg id="Capa_2" data-name="Capa 2" xmlns="http://www.w3.org/2000/svg" viewBox="0 0 779.84 187">
  <defs>
    <style>
      .cls-1 {
        fill: none;
        stroke: #fff;
        stroke-linecap: round;
        stroke-miterlimit: 10;
      }

      .cls-2 {
        fill: #fff;
      }

      .cls-2, .cls-3 {
        stroke-width: 0px;
      }

      .cls-3 {
        fill: #dd052b;
      }
    </style>
  </defs>
  <g id="Capa_1-2" data-name="Capa 1">
    <g>
      <line id="Línea_719" data-name="Línea 719" class="cls-1" x1="229.2" y1=".5" x2="229.2" y2="186.5"/>
      <g>
        <g>
          <rect class="cls-2" y="139.5" width="5.3" height="21.9"/>
          <rect class="cls-2" x="152.2" y="139.5" width="5.3" height="21.9"/>
          <polygon class="cls-2" points="103.9 139.5 98.7 139.5 98.7 152.7 87.1 139.5 87 139.5 81.9 139.5 81.9 161.3 87.2 161.3 87.2 147 99.8 161.3 103.9 161.3 103.9 139.5"/>
          <polygon class="cls-2" points="181.9 139.5 160.9 139.5 160.9 143.6 168.8 143.6 168.8 161.3 174 161.3 174 143.6 181.9 143.6 181.9 139.5"/>
          <polygon class="cls-2" points="51.2 143.6 51.2 139.5 37 139.5 37 139.5 36.3 139.5 36.3 161.3 41.6 161.3 41.6 152.5 51.2 152.5 51.2 148.4 41.6 148.4 41.6 143.6 51.2 143.6"/>
          <polygon class="cls-2" points="106.1 161.3 117.3 139.7 119.5 139.7 130.8 161.4 125 161.4 118.3 148.9 112 161.3 106.1 161.3"/>
          <polygon class="cls-2" points="149.3 139.8 138.1 161.4 135.9 161.4 124.6 139.7 130.4 139.7 137.1 152.2 143.4 139.8 149.3 139.8"/>
          <polygon class="cls-2" points="31.9 139.5 26.6 139.5 26.6 152.7 15 139.5 15 139.5 9.9 139.5 9.9 161.3 15.1 161.3 15.1 147 27.7 161.3 31.9 161.3 31.9 139.5"/>
          <path class="cls-2" d="M66.6,139.2c-7,0-12.6,5.1-12.6,11.3s5.6,11.3,12.6,11.3,12.6-5.1,12.6-11.3-5.6-11.3-12.6-11.3ZM66.6,156.9c-4,0-7.2-2.9-7.2-6.5s3.2-6.5,7.2-6.5,7.2,2.9,7.2,6.5-3.2,6.5-7.2,6.5Z"/>
          <g>
            <polygon class="cls-2" points="0 45.1 31.2 76.3 31.2 126.5 21.7 126.5 21.7 80.3 0 58.5 0 45.1"/>
            <ellipse class="cls-2" cx="46.3" cy="30.7" rx="18.2" ry="17.4"/>
            <polygon class="cls-2" points="90.9 45.1 59.7 76.3 59.7 126.5 69.2 126.5 69.2 80.3 90.9 58.5 112.7 80.3 112.7 126.5 122.2 126.5 122.2 76.3 90.9 45.1"/>
            <polygon class="cls-2" points="181.9 45.1 150.7 76.3 150.7 126.5 160.1 126.5 160.1 80.3 181.9 58.5 181.9 45.1"/>
            <polygon class="cls-2" points="90.9 32.3 131.7 73.1 131.7 126.5 141.2 126.5 141.2 73 181.9 32.3 181.9 18.9 136.4 64.4 90.9 18.9 45.5 64.4 0 18.9 0 32.3 40.7 73.1 40.7 126.5 50.2 126.5 50.2 73 90.9 32.3"/>
            <ellipse class="cls-2" cx="135.6" cy="30.7" rx="18.2" ry="17.4"/>
          </g>
        </g>
        <g>
          <path class="cls-2" d="M191.1,142.4c0,1.7-1.3,3-3,3s-3-1.3-3-3,1.3-2.9,3.1-2.9c1.5,0,2.9,1.3,2.9,2.9ZM185.8,142.4c0,1.3,1,2.4,2.3,2.4s2.2-1,2.2-2.3-1-2.4-2.3-2.4c-1.2,0-2.2,1-2.2,2.3Z"/>
          <path class="cls-2" d="M187,140.9h.9c.7,0,1,.4,1,.9,0,.4-.2.6-.5.8l.7,1.3h-.7l-.6-1.2h-.3v1.2h-.6v-3h.1ZM187.9,142.2c.2,0,.4-.1.4-.4,0-.2-.2-.4-.4-.4h-.3v.8h.3Z"/>
        </g>
      </g>
      <g>
        <g>
          <path class="cls-2" d="M426.61,88.22l18.36-41.52h11.62v56.88h-8.69v-44.04l-16.98,39h-8.61l-16.98-39v44.04h-8.69v-56.88h11.62l18.36,41.52h0Z"/>
          <path class="cls-2" d="M465.14,46.69h9.02v56.88h-9.02v-56.88Z"/>
          <path class="cls-2" d="M493.52,75.14c0-16.74,12.51-29.5,29.66-29.5,7.56,0,13.24,2.52,16.9,5.2l-3.25,10.07c-2.76-1.95-7.88-4.55-13.65-4.55-10.32,0-17.71,8.04-17.71,18.77s7.39,18.77,17.71,18.77c6.18,0,11.46-2.76,14.14-4.63l3.25,9.99c-3.41,2.52-9.1,5.36-17.39,5.36-17.8,0-29.66-12.76-29.66-29.5h0Z"/>
          <path class="cls-2" d="M544.89,82.2v-35.51h11.46v35.51c0,7.23,4.14,11.78,11.46,11.78s11.46-4.55,11.46-11.78v-35.51h11.46v35.51c0,13.41-8.21,22.43-22.91,22.43s-22.91-9.02-22.91-22.43h0Z"/>
          <path class="cls-2" d="M598.13,46.69h29.25v10.32h-17.79v12.68h15.27v10.16h-15.27v13.49h18.53v10.24h-29.98v-56.88Z"/>
          <path class="cls-2" d="M645.19,64.9v38.68h-11.3v-56.88h11.62l24.29,39v-39h11.3v56.88h-11.38l-24.54-38.68h0Z"/>
          <path class="cls-2" d="M698.27,57.01h-13.33v-10.32h38.03v10.32h-13.24v46.56h-11.46v-46.56h0Z"/>
          <path class="cls-2" d="M733.79,88.95l-4.96,14.63h-11.54l20.15-56.88h12.03l20.15,56.88h-11.54l-4.96-14.63h-19.34,0ZM743.46,58.97l-6.58,20.48h13.25l-6.66-20.48Z"/>
        </g>
        <g>
          <path class="cls-3" d="M272.41,65.4h16.49v9.64h-16.49c-2.26,0-4.32.93-5.82,2.42-1.5,1.5-2.44,3.56-2.44,5.82v33.52c0,2.25.94,4.32,2.44,5.82,1.5,1.5,3.56,2.43,5.82,2.43h33.51c2.26,0,4.33-.93,5.83-2.43,1.5-1.49,2.42-3.56,2.42-5.82v-14.46h9.64v14.46c0,4.91-2.02,9.39-5.25,12.63-3.24,3.24-7.72,5.25-12.64,5.25h-33.51c-4.92,0-9.39-2.01-12.64-5.25-3.24-3.24-5.25-7.72-5.25-12.63v-33.52c0-4.92,2.01-9.4,5.25-12.64,3.24-3.23,7.71-5.25,12.64-5.25h0Z"/>
          <path class="cls-3" d="M315.81,85.23c-2.28,0-4.35-.93-5.84-2.41v-.02c-1.5-1.5-2.43-3.57-2.43-5.83v-37.01c0-2.27.93-4.34,2.43-5.83v-.02c1.49-1.48,3.56-2.41,5.84-2.41h37.01c2.28,0,4.35.92,5.84,2.41v.02c1.5,1.5,2.43,3.57,2.43,5.83v33.76l10.41,7.95c.38-1.51.59-3.08.59-4.7v-37.01c0-5.3-2.17-10.12-5.66-13.61h0c-3.5-3.48-8.32-5.65-13.6-5.65h-37.01c-5.29,0-10.11,2.17-13.61,5.67h-.01c-3.49,3.48-5.66,8.29-5.66,13.6v37.01c0,5.3,2.17,10.12,5.66,13.61h.01c3.5,3.48,8.31,5.65,13.61,5.65h17.18l-1.91-11h-15.26Z"/>
          <path class="cls-3" d="M330.35,55.71c2.41-1.46,5.46-1.3,7.7.41l12.85,9.82v-18.95c0-1.41-.58-2.7-1.51-3.62h0c-.92-.94-2.2-1.51-3.62-1.51h-22.94c-1.41,0-2.7.57-3.62,1.5h0c-.93.94-1.51,2.22-1.51,3.64v22.93c0,1.41.58,2.7,1.51,3.62h0c.92.94,2.2,1.51,3.62,1.51h6.46l-2.14-12.32c-.48-2.77.78-5.56,3.19-7.02h0Z"/>
          <polygon class="cls-3" points="416.32 118.72 416.32 147.69 399.24 118.72 387.62 118.72 387.62 165.44 398.84 165.44 398.84 136.81 416.19 165.44 427.54 165.44 427.54 118.72 416.32 118.72"/>
          <path class="cls-3" d="M457.81,147.62v17.82h-11.41v-46.72h24.69v10.21h-13.28v8.54h11.61v10.14h-11.61Z"/>
          <path class="cls-3" d="M485.87,142.02c0-13.55,9.74-24.16,24.49-24.16s24.49,10.61,24.49,24.16-9.74,24.29-24.49,24.29-24.49-10.54-24.49-24.29ZM497.75,142.02c0,7.88,5.21,13.61,12.61,13.61s12.61-5.74,12.61-13.61-5.14-13.48-12.61-13.48-12.61,5.81-12.61,13.48h0Z"/>
          <path class="cls-3" d="M562.8,136.81v28.63h-11.21v-46.72h11.61l17.08,28.97v-28.97h11.21v46.72h-11.35l-17.35-28.63h0Z"/>
          <path class="cls-3" d="M618.21,154.96l-3.34,10.48h-11.48l16.15-46.72h12.01l16.15,46.72h-11.48l-3.34-10.48h-14.68ZM625.55,130.8l-4.41,14.82h8.81l-4.41-14.82h0Z"/>
          <path class="cls-3" d="M666.84,165.44l-16.88-46.72h12.55l10.54,33.24,10.54-33.24h12.55l-16.88,46.72h-12.42Z"/>
          <path class="cls-3" d="M721.19,165.44h-11.41v-46.72h11.41v46.72Z"/>
          <path class="cls-3" d="M759.55,128.94v36.51h-11.41v-36.51h-10.08v-10.21h31.57v10.21h-10.08,0Z"/>
        </g>
        <rect class="cls-3" x="357.35" y="118.72" width="11.41" height="46.72"/>
        <path class="cls-2" d="M389.28,100.42l-53.73-41.03c-.9-.68-2.12-.75-3.08-.17-.96.58-1.47,1.7-1.28,2.81l11.32,65.04c.2,1.16,1.12,2.06,2.28,2.24.14.02.28.03.42.03,1.01,0,1.95-.56,2.43-1.48l11.45-22.14,28.56-.4c1.17-.02,2.19-.77,2.56-1.88.37-1.11-.01-2.32-.94-3.03h0ZM380.68,100.46c-2.05-.09-16.87.21-22.2-.05-1.1-.05-1.85.38-2.32,1.38-3.11,6.61-6.2,12.26-9.32,18.87-.03.07-.63,1.44-.82,1.76-3.48-18.77-6.37-38.61-9.81-57.16.06-.03.11-.07.17-.1,14.79,11.71,29.57,23.42,44.36,35.13-.02.06-.04.11-.06.17Z"/>
        <g>
          <path class="cls-3" d="M779.84,160.01c0,2.65-2.13,4.75-4.83,4.75s-4.86-2.1-4.86-4.75,2.16-4.72,4.89-4.72,4.8,2.07,4.8,4.72ZM771.36,160.01c0,2.1,1.58,3.77,3.68,3.77,2.04.03,3.6-1.67,3.6-3.74s-1.55-3.8-3.65-3.8-3.63,1.7-3.63,3.77h0Z"/>
          <path class="cls-3" d="M773.35,157.6h1.46c1.06,0,1.64.65,1.64,1.44,0,.59-.29,1.04-.74,1.28l1.15,2.13h-1.08l-.94-1.9h-.52v1.9h-.98v-4.85h0ZM774.79,159.73c.35,0,.67-.22.67-.65,0-.39-.27-.63-.71-.63h-.41v1.28h.46,0Z"/>
        </g>
      </g>
    </g>
  </g>
</svg>