<svg xmlns="http://www.w3.org/2000/svg" width="26.127" height="26.126" viewBox="0 0 26.127 26.126">
  <path id="_082-spotify" data-name="082-spotify" d="M13.063,26.126A13.063,13.063,0,1,0,0,13.063,13.068,13.068,0,0,0,13.063,26.126Zm5.3-6.906h0c-.879,0-3.653-3.079-11.452-1.481a3.363,3.363,0,0,1-.627.137.865.865,0,0,1-.115-1.718c4.314-.953,8.723-.869,12.483,1.38a.877.877,0,0,1-.288,1.68Zm1.418-3.454c-.123-.033-.087.075-.65-.221A17.07,17.07,0,0,0,6.568,14a2.164,2.164,0,0,1-.627.137,1.071,1.071,0,0,1-.2-2.112A19.083,19.083,0,0,1,20.211,13.7a1.1,1.1,0,0,1,.6,1.037A1.021,1.021,0,0,1,19.785,15.766ZM4.951,7.618c4.924-1.441,12.375-.986,17.008,1.718a1.281,1.281,0,0,1-.542,2.417h0a1.213,1.213,0,0,1-.68-.206C16.988,9.308,10.281,8.771,5.942,9.982a2.535,2.535,0,0,1-.68.136A1.216,1.216,0,0,1,4.034,8.875a1.244,1.244,0,0,1,.917-1.257Z" fill="#fff"/>
</svg>
